<svg width="210" height="174" viewBox="0 0 210 174" fill="none" xmlns="http://www.w3.org/2000/svg">
<path d="M162.96 56.8231C161.739 54.9814 159.692 53.875 157.5 53.875H150.938C147.308 53.875 144.375 56.8364 144.375 60.5V100.25C144.375 103.914 147.308 106.875 150.938 106.875H177.188C180.817 106.875 183.75 103.914 183.75 100.25V90.3125C183.75 89.0074 183.363 87.7221 182.648 86.6356L162.96 56.8231ZM177.188 100.25H150.938V60.5H157.5L177.188 90.3125V100.25Z" fill="#0B0313"/>
<path d="M206.693 82.601L180.443 42.851C176.781 37.3059 170.651 34 164.062 34H137.812V20.75C137.812 9.79225 128.979 0.875 118.125 0.875H19.6875C8.83313 0.875 0 9.79225 0 20.75V93.625C0 104.583 8.83313 113.5 19.6875 113.5V133.375C19.6875 144.333 28.5206 153.25 39.375 153.25H46.8694C49.8028 164.652 59.9944 173.125 72.1941 173.125C84.3806 173.125 94.5722 164.652 97.5056 153.25H132.169C135.102 164.652 145.294 173.125 157.493 173.125C169.68 173.125 179.872 164.652 182.805 153.25H190.312C201.167 153.25 210 144.333 210 133.375V93.625C210 89.6898 208.858 85.8738 206.693 82.601ZM19.6875 100.25C16.065 100.25 13.125 97.2886 13.125 93.625V20.75C13.125 17.0864 16.065 14.125 19.6875 14.125H118.125C121.754 14.125 124.688 17.0864 124.688 20.75V34V47.25V93.625C124.688 97.2886 121.754 100.25 118.125 100.25H19.6875ZM72.1941 159.875C64.9425 159.875 59.0691 153.939 59.0691 146.625C59.0691 139.311 64.9425 133.375 72.1941 133.375C79.4391 133.375 85.3191 139.311 85.3191 146.625C85.3191 153.939 79.4325 159.875 72.1941 159.875ZM157.5 159.875C150.248 159.875 144.375 153.939 144.375 146.625C144.375 139.311 150.248 133.375 157.5 133.375C164.745 133.375 170.625 139.311 170.625 146.625C170.625 153.939 164.745 159.875 157.5 159.875ZM196.875 133.375C196.875 137.039 193.942 140 190.312 140H182.812C179.878 128.598 169.687 120.125 157.5 120.125C145.3 120.125 135.109 128.598 132.175 140H97.5122C94.5788 128.598 84.3872 120.125 72.2006 120.125C60.0009 120.125 49.8094 128.598 46.8759 140H39.375C35.7525 140 32.8125 137.039 32.8125 133.375V113.5H118.125C128.979 113.5 137.812 104.583 137.812 93.625V47.25H164.062C166.254 47.25 168.302 48.3564 169.523 50.1981L195.773 89.9481C196.488 91.0346 196.875 92.3199 196.875 93.625V133.375Z" fill="#0B0313"/>
</svg>
